<svg width="60" height="60" viewBox="0 0 60 60" fill="none" xmlns="http://www.w3.org/2000/svg">
<rect width="60" height="60" rx="30" fill="#272733"/>
<path d="M35.4485 21.2568C33.9933 19.8015 32.0583 19 30.0004 19C27.9421 19 26.0076 19.8015 24.5524 21.2568C21.8593 23.9495 21.5246 29.0159 23.8276 32.0854L30.0004 41L36.1641 32.0979C38.4763 29.0159 38.1416 23.9495 35.4485 21.2568ZM30.0715 29.4462C28.5211 29.4462 27.2591 28.1842 27.2591 26.6337C27.2591 25.0833 28.5211 23.8213 30.0715 23.8213C31.622 23.8213 32.884 25.0833 32.884 26.6337C32.884 28.1842 31.622 29.4462 30.0715 29.4462Z" fill="white"/>
</svg>
