<svg width="230" height="515" viewBox="0 0 230 515" fill="none" xmlns="http://www.w3.org/2000/svg">
<path d="M-56.498 101.302L-183.734 228.702C-199.345 244.333 -199.345 269.675 -183.734 285.306L-56.498 412.706C-40.8872 428.337 -15.5772 428.337 0.0336254 412.706L127.27 285.306C142.881 269.675 142.881 244.333 127.27 228.702L0.0336389 101.302C-15.5771 85.6714 -40.8872 85.6714 -56.498 101.302Z" fill="#1C202A"/>
<path d="M-98.9747 70.5972L-215.177 186.43C-254.292 225.419 -254.292 288.634 -215.177 327.624L-98.9747 443.457C-59.8604 482.446 3.55645 482.446 42.6707 443.457L158.873 327.624C197.988 288.634 197.988 225.419 158.873 186.43L42.6707 70.5971C3.5564 31.6074 -59.8604 31.6075 -98.9747 70.5972Z" stroke="url(#paint0_linear)" stroke-miterlimit="10"/>
<defs>
<linearGradient id="paint0_linear" x1="-211.555" y1="439.846" x2="154.057" y2="73.0654" gradientUnits="userSpaceOnUse">
<stop stop-color="#7231CF"/>
<stop offset="1" stop-color="#EE3DC6"/>
</linearGradient>
</defs>
</svg>
