<?xml version="1.0" encoding="UTF-8"?>
<svg width="45px" height="46px" viewBox="0 0 45 46" version="1.1" xmlns="http://www.w3.org/2000/svg" xmlns:xlink="http://www.w3.org/1999/xlink">
    <!-- Generator: Sketch 61 (89581) - https://sketch.com -->
    <title>Group</title>
    <desc>Created with Sketch.</desc>
    <g id="Page-1" stroke="none" stroke-width="1" fill="none" fill-rule="evenodd">
        <g id="numb_one" transform="translate(-503.000000, -113.000000)" fill="#FFFFFF" fill-rule="nonzero">
            <g id="numb_three" transform="translate(476.000000, 89.000000)">
                <g id="Group" transform="translate(27.000000, 24.000000)">
                    <path d="M34.2346,7.8835 C34.2346,6.8278 33.8225,5.8339 33.0758,5.0872 L29.3473,1.3587 C28.611,0.6223 27.5657,0.2 26.5254,0.2 L26.2988,0.2 L26.2988,8.1101 L34.2346,8.1101 L34.2346,7.8835 Z" id="Path"></path>
                    <path d="M24.0765,27.4053 C24.3288,26.6393 24.7692,25.9261 25.3433,25.348 L34.2697,16.4576 L34.2697,10.7468 L25.006,10.7468 C24.2773,10.7468 23.7305,10.1572 23.7305,9.4285 L23.7305,0.2 L3.9551,0.2 C1.7742,0.2 0,1.9741 0,4.155 L0,41.2449 C0,43.4258 1.7742,45.2 3.9551,45.2 L30.2795,45.2 C32.4604,45.2 34.2697,43.4258 34.2697,41.2449 L34.2697,31.4054 L32.8209,32.8191 C32.2339,33.401 31.5464,33.8245 30.7713,34.0834 L26.5794,35.4829 L25.9407,35.5177 C24.885,35.5177 23.8859,35.0039 23.2654,34.1439 C22.65,33.2878 22.4827,32.178 22.8174,31.1751 L24.0765,27.4053 Z M6.5918,23.9304 L19.7326,23.9304 C20.4613,23.9304 21.0509,24.5201 21.0509,25.2488 C21.0509,25.9775 20.4613,26.5671 19.7326,26.5671 L6.5918,26.5671 C5.8631,26.5671 5.2734,25.9775 5.2734,25.2488 C5.2734,24.5201 5.8631,23.9304 6.5918,23.9304 Z M5.2734,19.9753 C5.2734,19.2466 5.8631,18.657 6.5918,18.657 L19.7326,18.657 C20.4613,18.657 21.0509,19.2466 21.0509,19.9753 C21.0509,20.704 20.4613,21.2937 19.7326,21.2937 L6.5918,21.2937 C5.8631,21.2937 5.2734,20.704 5.2734,19.9753 Z M5.2734,30.5222 C5.2734,29.7935 5.8631,29.2039 6.5918,29.2039 L19.7326,29.2039 C20.4613,29.2039 21.0509,29.7935 21.0509,30.5222 C21.0509,31.2509 20.4613,31.8406 19.7326,31.8406 L6.5918,31.8406 C5.8631,31.8406 5.2734,31.2509 5.2734,30.5222 Z M25.006,37.114 C25.7347,37.114 26.3244,37.7037 26.3244,38.4324 C26.3244,39.1611 25.7348,39.7507 25.006,39.7507 L17.0959,39.7507 C16.3672,39.7507 15.7775,39.1611 15.7775,38.4324 C15.7775,37.7037 16.3672,37.114 17.0959,37.114 L25.006,37.114 Z M6.5918,16.0203 C5.8631,16.0203 5.2734,15.4306 5.2734,14.7019 C5.2734,13.9732 5.8631,13.3835 6.5918,13.3835 L25.006,13.3835 C25.7347,13.3835 26.3244,13.9732 26.3244,14.7019 C26.3244,15.4306 25.7347,16.0203 25.006,16.0203 L6.5918,16.0203 Z" id="Shape"></path>
                    <path d="M26.4648,28.5718 L25.3178,32.0128 C25.1459,32.5283 25.6364,33.0186 26.1519,32.8464 L29.5909,31.6979 L26.4648,28.5718 Z" id="Path"></path>
                    <path d="M36.7039,17.7172 L28.0212,26.3998 L31.7658,30.1444 C33.7282,28.1816 37.5466,24.3627 40.448,21.4613 L36.7039,17.7172 Z" id="Path"></path>
                    <path d="M44.2253,13.9359 C43.7618,13.4699 43.0794,13.2034 42.3558,13.2034 C41.6322,13.2034 40.9499,13.4699 40.4839,13.9373 L38.5681,15.853 L42.3121,19.597 C43.3609,18.5481 44.0858,17.8232 44.228,17.681 C45.2578,16.6496 45.2577,14.9697 44.2253,13.9359 Z" id="Path"></path>
                    <path d="M44.2279,17.6844 C44.228,17.6844 44.228,17.6843 44.2281,17.6842 C44.2327,17.6796 44.2347,17.6775 44.2385,17.6737 C44.2347,17.6776 44.2327,17.6797 44.2279,17.6844 Z" id="Path"></path>
                    <path d="M44.2384,17.676 C44.2426,17.6717 44.2476,17.6667 44.2502,17.6641 C44.2475,17.6668 44.2426,17.6717 44.2384,17.676 Z" id="Path"></path>
                    <path d="M44.2474,17.6632 C44.2579,17.6526 44.2581,17.6524 44.2474,17.6632 L44.2474,17.6632 Z" id="Path"></path>
                </g>
            </g>
        </g>
    </g>
</svg>