<?xml version="1.0" encoding="UTF-8"?>
<svg width="46px" height="40px" viewBox="0 0 46 40" version="1.1" xmlns="http://www.w3.org/2000/svg" xmlns:xlink="http://www.w3.org/1999/xlink">
    <!-- Generator: Sketch 61 (89581) - https://sketch.com -->
    <title>Group</title>
    <desc>Created with Sketch.</desc>
    <g id="Page-1" stroke="none" stroke-width="1" fill="none" fill-rule="evenodd">
        <g id="numb_one" transform="translate(-175.000000, -209.000000)" fill="#FFFFFF" fill-rule="nonzero">
            <g id="numb_two" transform="translate(153.000000, 184.000000)">
                <g id="Group" transform="translate(22.000000, 25.000000)">
                    <path d="M28.8428,0.2266 L4.9365,0.2266 C2.748,0.2266 0.9814,1.9931 0.9814,4.1816 L0.9814,20.002 C0.9814,22.1903 2.748,23.957 4.9365,23.957 L6.2549,23.957 L6.2549,27.9121 C6.2549,28.8646 7.2411,29.5543 8.2061,29.0723 C8.2324,29.0459 8.2852,29.0459 8.3116,29.0194 C15.564,24.156 13.9386,25.2404 15.5626,24.1679 C15.7734,24.036 16.0107,23.957 16.2744,23.957 L28.8428,23.957 C31.0313,23.957 32.7979,22.1903 32.7979,20.002 L32.7979,4.1816 C32.7979,1.9931 31.0313,0.2266 28.8428,0.2266 Z M18.2959,16.0469 L7.5732,16.0469 C5.8354,16.0469 5.8283,13.4102 7.5732,13.4102 L18.2959,13.4102 C20.0338,13.4102 20.0409,16.0469 18.2959,16.0469 Z M26.2061,10.7734 L7.5732,10.7734 C5.8354,10.7734 5.8283,8.1367 7.5732,8.1367 L26.2061,8.1367 C27.9439,8.1367 27.951,10.7734 26.2061,10.7734 Z" id="Shape"></path>
                    <path d="M42.0264,10.7734 L35.4346,10.7734 L35.4346,20.002 C35.4346,23.6406 32.4814,26.5937 28.8428,26.5937 L16.6699,26.5937 L14.165,28.2549 L14.165,30.5488 C14.165,32.7372 15.9316,34.5039 18.1201,34.5039 L31.0839,34.5039 L38.6513,39.5663 C39.6842,40.1398 40.708,39.4424 40.708,38.459 L40.708,34.5039 L42.0264,34.5039 C44.2149,34.5039 45.9814,32.7372 45.9814,30.5488 L45.9814,14.7285 C45.9814,12.54 44.2149,10.7734 42.0264,10.7734 Z" id="Path"></path>
                </g>
            </g>
        </g>
    </g>
</svg>