<?xml version="1.0" encoding="UTF-8"?>
<svg width="36px" height="45px" viewBox="0 0 36 45" version="1.1" xmlns="http://www.w3.org/2000/svg" xmlns:xlink="http://www.w3.org/1999/xlink">
    <!-- Generator: Sketch 61 (89581) - https://sketch.com -->
    <title>Group</title>
    <desc>Created with Sketch.</desc>
    <g id="Page-1" stroke="none" stroke-width="1" fill="none" fill-rule="evenodd">
        <g id="numb_one" transform="translate(-25.000000, -20.000000)" fill="#FFFFFF" fill-rule="nonzero">
            <g id="Group" transform="translate(25.000000, 20.000000)">
                <path d="M25.9227,23.2821 C25.0261,24.1259 24.0241,24.785 22.9167,25.286 L19.6736,30.164 L21.7302,32.2206 L27.0036,24.3104 L25.9227,23.2821 Z" id="Path"></path>
                <path d="M26.3356,5.2998 C24.863,8.3791 21.6981,10.5469 18.0036,10.5469 L8.7751,10.5469 L8.7751,14.502 C8.7751,18.606 11.4712,21.9668 14.8132,23.1503 L14.8396,23.1503 C16.7455,23.9027 19.2619,23.9027 21.1678,23.1503 L21.1941,23.1503 C23.8383,22.3577 27.2321,18.9596 27.2321,14.502 L27.2321,9.2285 C27.2321,7.831 26.9157,6.4862 26.3356,5.2998 Z" id="Path"></path>
                <path d="M17.9862,0 C13.3456,0 9.4961,3.4541 8.8631,7.9102 L17.9862,7.9102 C21.0821,7.9102 23.7961,5.7502 24.4462,2.6631 C22.7851,1.002 20.4911,0 17.9862,0 Z" id="Path"></path>
                <path d="M14.9519,35.2001 C14.4166,35.7954 13.4541,35.7255 12.9218,35.0155 L6.6728,25.6552 L3.1395,26.6835 C1.0037,27.3955 -0.2618,29.663 0.2917,31.7723 L2.612,43.9452 C2.7439,44.5515 3.2976,45 3.904,45 C3.9569,45 4.0096,45 4.0622,44.9736 C4.0886,45 4.0886,45 4.1151,45 L16.6658,45 L16.6658,33.5126 L14.9519,35.2001 Z" id="Path"></path>
                <path d="M32.7956,26.6572 L29.3152,25.6553 L23.0661,35.0156 C22.5071,35.7612 21.533,35.7529 21.0359,35.2002 L19.322,33.5127 L19.322,45 L32.0574,45 C32.6904,45 33.2176,44.5517 33.3496,43.9452 L35.6696,31.8514 C36.2232,29.6631 34.984,27.3955 32.7956,26.6572 Z M28.5506,39.5508 L25.9139,39.5508 C24.1673,39.5508 24.1673,36.9141 25.9139,36.9141 L28.5506,36.9141 C30.2972,36.9141 30.2972,39.5508 28.5506,39.5508 Z" id="Shape"></path>
                <path d="M13.0907,25.2861 C11.9833,24.7852 10.9813,24.126 10.0848,23.3086 L9.0302,24.3369 L14.2772,32.2207 L16.3338,30.1642 L13.0907,25.2861 Z" id="Path"></path>
                <path d="M19.0321,26.3143 C18.6893,26.3408 18.3202,26.3672 17.9773,26.3672 C17.6346,26.3672 17.2653,26.3408 16.9226,26.3143 L16.8964,26.3143 L17.9773,27.9491 L19.0583,26.3143 L19.0321,26.3143 Z" id="Path"></path>
            </g>
        </g>
    </g>
</svg>